{"title":"Papillon [1973] 720p BRRip XviD AC3 - CODY","uid":6431029,"size":2991235456,"categoryP":"video","categoryS":"hd___movies","magnet":"?xt=urn:btih:79b5cb4db3c3232b89adb1d752df3b22295fbc9b&amp;dn=Papillon+%5B1973%5D+720p+BRRip+XviD+AC3+-+CODY&amp;tr=udp%3A%2F%2Ftracker.openbittorrent.com%3A80&amp;tr=udp%3A%2F%2Fopen.demonii.com%3A1337&amp;tr=udp%3A%2F%2Ftracker.coppersurfer.tk%3A6969&amp;tr=udp%3A%2F%2Fexodus.desync.com%3A6969","seeders":1,"leechers":1,"uploader":"CODYBOSS1969","files":10,"time":1306655395,"description":"General\nComplete name                    : Papillon [1973] 720p BRRip XviD AC3 - CODY.avi\nFormat                           : AVI\nFormat/Info                      : Audio Video Interleave\nFormat profile                   : OpenDML\nFile size                        : 2.73 GiB\nDuration                         : 2h 30mn\nOverall bit rate                 : 2 588 Kbps\nWriting application              : VirtualDubMod 1.5.10.2 (build 2540/release)\nWriting library                  : VirtualDubMod build 2540/release\n\nVideo\nID                               : 0\nFormat                           : MPEG-4 Visual\nFormat profile                   : Advanced Simple@L5\nFormat settings, BVOP            : 2\nFormat settings, QPel            : No\nFormat settings, GMC             : No warppoints\nFormat settings, Matrix          : Default (H.263)\nMuxing mode                      : Packed bitstream\nCodec ID                         : XVID\nCodec ID/Hint                    : XviD\nDuration                         : 2h 30mn\nBit rate                         : 2 128 Kbps\nWidth                            : 1 280 pixels\nHeight                           : 536 pixels\nDisplay aspect ratio             : 2.35:1\nFrame rate                       : 23.976 fps\nColor space                      : YUV\nChroma subsampling               : 4:2:0\nBit depth                        : 8 bits\nScan type                        : Progressive\nCompression mode                 : Lossy\nBits/(Pixel*Frame)               : 0.129\nStream size                      : 2.24 GiB (82%)\nWriting library                  : XviD 1.2.0.dev47 (UTC 2006-11-01)\n\nAudio\nID                               : 1\nFormat                           : AC-3\nFormat/Info                      : Audio Coding 3\nMode extension                   : CM (complete main)\nCodec ID                         : 2000\nDuration                         : 2h 30mn\nBit rate mode                    : Constant\nBit rate                         : 448 Kbps\nChannel(s)                       : 6 channels\nChannel positions                : Front: L C R, Side: L R, LFE\nSampling rate                    : 48.0 KHz\nBit depth                        : 16 bits\nCompression mode                 : Lossy\nStream size                      : 483 MiB (17%)\nAlignment                        : Split accross interleaves\nInterleave, duration             : 42 ms (1.00 video frame)\nInterleave, preload duration     : 500 ms\n\n\n\nSample                           : included\n\n\n\nIMDB link:                         &lt;a href=&quot; http://www.imdb.com/title/tt0070511/&quot; rel=&quot;nofollow&quot; target=&quot;_NEW&quot;&gt; http://www.imdb.com/title/tt0070511/&lt;/a&gt;\n\n\n\nSubtitles included               : Romanian, English\n\n\n\nPlease seed at least 1,5:1. This way this torrent has a chance to survive!\n\n\n\nThanks. Enjoy !\n","torrent":{"xt":"urn:btih:79b5cb4db3c3232b89adb1d752df3b22295fbc9b","amp;dn":"Papillon+%5B1973%5D+720p+BRRip+XviD+AC3+-+CODY","amp;tr":["udp%3A%2F%2Ftracker.openbittorrent.com%3A80","udp%3A%2F%2Fopen.demonii.com%3A1337","udp%3A%2F%2Ftracker.coppersurfer.tk%3A6969","udp%3A%2F%2Fexodus.desync.com%3A6969"],"infoHash":"79b5cb4db3c3232b89adb1d752df3b22295fbc9b","infoHashBuffer":{"type":"Buffer","data":[121,181,203,77,179,195,35,43,137,173,177,215,82,223,59,34,41,95,188,155]},"announce":[],"urlList":[]}}